<?xml version="1.0" encoding="UTF-8"?>
<svg version="1.1" xmlns="http://www.w3.org/2000/svg" width="1201" height="1201">
<path d="M0 0 C396.33 0 792.66 0 1201 0 C1201 396.33 1201 792.66 1201 1201 C804.67 1201 408.34 1201 0 1201 C0 804.67 0 408.34 0 0 Z " fill="#FEFEFE" transform="translate(0,0)"/>
<path d="M0 0 C0.66 0 1.32 0 2 0 C18.94091801 42.91699229 18.94091801 42.91699229 19.88058472 45.29748535 C20.49835852 46.8625096 21.11613601 48.42753239 21.73391724 49.99255371 C23.28493831 53.92175919 24.83589168 57.85099138 26.38671875 61.78027344 C29.13431099 68.74158512 31.88219577 75.70277952 34.63279724 82.66290283 C36.10970923 86.40013252 37.58618506 90.13753443 39.0625 93.875 C39.35959869 94.6270874 39.65669739 95.3791748 39.96279907 96.15405273 C44.12564092 106.6941886 48.27413129 117.23990676 52.4140625 127.7890625 C53.12113091 129.59068092 53.12113091 129.59068092 53.84248352 131.42869568 C54.80645757 133.88494871 55.77043157 136.34120176 56.73440552 138.79745483 C57.2139267 140.01929474 57.69344788 141.24113464 58.1875 142.5 C58.66581268 143.71885895 59.14412537 144.9377179 59.63693237 146.19351196 C65.36808775 160.79506311 71.12767856 175.38351318 76.98217773 189.93603516 C82.45592763 203.57140179 87.72692858 217.28605809 93 231 C95.09373427 231.21812644 95.09373427 231.21812644 96.56884766 229.64233398 C97.17776855 229.01657471 97.78668945 228.39081543 98.4140625 227.74609375 C99.09339844 227.05580078 99.77273438 226.36550781 100.47265625 225.65429688 C101.18292969 224.92275391 101.89320313 224.19121094 102.625 223.4375 C107.34444189 218.59852253 112.12039323 213.96153732 117.24511719 209.55249023 C119.44112477 207.60975064 121.38779832 205.52262838 123.3125 203.3125 C126.67021613 199.50400615 130.06049806 195.73433345 133.5 192 C138.37016644 186.69944283 143.19324791 181.35806416 148 176 C149.49971128 174.33307353 150.99971321 172.66640851 152.5 171 C153.2425 170.175 153.985 169.35 154.75 168.5 C160 162.66666667 165.25 156.83333333 170.5 151 C171.23992188 150.17757812 171.97984375 149.35515625 172.7421875 148.5078125 C174.26708244 146.81407106 175.79315402 145.12138831 177.3203125 143.4296875 C181.31243726 139.0045187 185.27325892 134.55662865 189.1875 130.0625 C191.27211164 127.69035571 193.38428644 125.34443935 195.5 123 C200.32121275 117.65210014 205.07894027 112.25697785 209.75 106.77734375 C214.49079323 101.21877521 219.24086217 95.69062026 224.1875 90.3125 C228.23297963 85.90512443 232.02553572 81.34246982 235.78125 76.6875 C238.67834993 73.17833671 241.74159842 69.8369226 244.80859375 66.4765625 C247.01092779 63.98765024 249.07479326 61.42759992 251.125 58.8125 C258.43698449 49.59680357 266.19434724 41.72151364 278 39 C287.08460384 38.21083239 294.96974196 38.31786258 303 43 C304.82439421 43.9506267 306.64886526 44.90110782 308.47436523 45.84960938 C313.35076653 48.39666639 318.12818202 51.05772848 322.8359375 53.90625 C327.87996273 56.95305374 333.0084367 59.81512829 338.1875 62.625 C339.12585693 63.13498535 340.06421387 63.6449707 341.03100586 64.17041016 C357.01723016 72.82801393 373.04439373 81.20955218 389.64453125 88.62890625 C396.62652013 91.84660544 403.22572154 94.97903039 407 102 C408.2763867 108.08738272 406.63180829 111.88152355 403.3046875 117.0234375 C399.15998438 122.37642695 394.45818776 127.21005107 389.75390625 132.0703125 C386.60392617 135.33026086 383.60331963 138.6940143 380.63647461 142.12060547 C378.30769483 144.79507164 375.9065727 147.39523896 373.5 150 C369.87812833 153.93194867 366.31039094 157.90216297 362.80859375 161.94140625 C360.5698875 164.4895665 358.28589788 166.99410593 356 169.5 C353.13528185 172.64083556 350.28814098 175.79100756 347.5 179 C344.71185902 182.20899244 341.86471815 185.35916444 339 188.5 C335.54356229 192.29009082 332.13156146 196.11056033 328.76953125 199.984375 C326.74885044 202.28607764 324.68687382 204.54764379 322.625 206.8125 C319.55253227 210.21083552 316.61557378 213.67590523 313.75 217.25 C309.6511278 222.32342922 305.26760012 227.06069181 300.80004883 231.80541992 C296.75774597 236.12173717 293.00426509 240.60476234 289.30859375 245.22265625 C286.64720435 248.42442929 283.84536335 251.46233425 281 254.5 C276.54447306 259.25740706 272.36866226 264.15818547 268.28515625 269.2421875 C265.29515531 272.85063307 262.14328193 276.28960261 258.94946289 279.7175293 C256.32739453 282.53344887 253.81924546 285.40456281 251.375 288.375 C245.81981133 294.73701369 238.39367648 299.52543521 230 301 C218.12009835 301.45691929 207.80343488 294.99037923 197.75 289.4375 C189.42310538 284.89308172 181.06673986 280.4537701 172.5625 276.25 C158.2901067 269.17984956 144.27150575 261.80996265 130.51782227 253.77368164 C118.66747324 246.86461745 108.18705281 241.15817209 94 243 C80.56362937 247.70541342 71.3631019 259.57454809 62.54541016 270.15185547 C59.99208555 273.2053574 57.40289522 276.22794115 54.8125 279.25 C54.31355225 279.83305908 53.81460449 280.41611816 53.30053711 281.0168457 C49.6018191 285.32805141 45.82842908 289.5661482 42.01171875 293.7734375 C40.15265331 295.83104391 38.32071642 297.90846763 36.5 300 C33.10625985 303.89651647 29.64569997 307.73064945 26.18359375 311.56640625 C24.29151315 313.67511146 22.42094242 315.79919801 20.5625 317.9375 C16.90821138 322.13442081 13.15255027 326.2365276 9.40234375 330.34765625 C7.43058156 332.52460996 5.48634663 334.71838674 3.5625 336.9375 C0.13742874 340.88078535 -3.39885697 344.71936054 -6.9375 348.56030273 C-10.17596389 352.08190795 -13.35073731 355.64945323 -16.46484375 359.28125 C-18.2370367 361.2653846 -20.10492845 363.13357964 -22 365 C-33.60272928 336.13520644 -45.08894562 307.22130344 -56.27001953 278.19042969 C-60.85522539 266.30570529 -65.55350804 254.46609722 -70.25 242.625 C-77.89849711 223.33901252 -85.47933397 204.02788983 -93.00454712 184.6934967 C-96.63381933 175.36898974 -100.27255924 166.04818061 -103.91104126 156.7272644 C-105.62848583 152.32740467 -107.34548345 147.92737053 -109.0625 143.52734375 C-109.6367165 142.05590732 -110.210935 140.58447168 -110.78515625 139.11303711 C-111.18605469 138.08573486 -111.58695312 137.05843262 -112 136 C-113.11812749 136.95089561 -114.23519044 137.90304306 -115.35180664 138.85571289 C-115.97398575 139.3858046 -116.59616486 139.9158963 -117.23719788 140.46205139 C-119.4098727 142.35759156 -121.4296735 144.36894529 -123.4375 146.4375 C-126.15902216 149.20032688 -128.90389863 151.82139252 -131.875 154.3125 C-136.89880582 158.62718015 -141.24545017 163.57177615 -145.65380859 168.49658203 C-146.91672753 169.90700184 -148.18663917 171.31115139 -149.45703125 172.71484375 C-152.81584135 176.42841744 -156.15053983 180.16017747 -159.4375 183.9375 C-163.09057956 188.13303221 -166.84505549 192.23373553 -170.59375 196.34375 C-172.58648953 198.54352741 -174.5533814 200.75955218 -176.5 203 C-179.28814098 206.20899244 -182.13528185 209.35916444 -185 212.5 C-188.45575413 216.28934126 -191.8652289 220.11083698 -195.23046875 223.98046875 C-199.510948 228.86569562 -203.8781865 233.67628383 -208.2578125 238.47265625 C-212.03024197 242.61969979 -215.68419744 246.8099907 -219.1875 251.1875 C-223.49341648 256.51899379 -228.13461847 261.47036093 -232.83984375 266.4453125 C-237.04278996 270.91208001 -240.96488699 275.53023881 -244.79296875 280.32421875 C-247.25978624 283.31496207 -249.85966944 286.16365247 -252.5 289 C-255.97423429 292.73322811 -259.30069142 296.52371648 -262.5 300.5 C-281.88710824 324.47330589 -281.88710824 324.47330589 -296.8203125 326.35546875 C-309.24739608 326.95573258 -318.95760056 320.61686059 -329.37890625 314.6328125 C-343.49972705 306.54349807 -357.92459334 298.98054145 -372.375 291.5 C-372.97866394 291.18739227 -373.58232788 290.87478455 -374.20428467 290.55270386 C-380.88626921 287.09728564 -387.58968272 283.6914978 -394.33984375 280.37109375 C-395.51305176 279.79230469 -396.68625977 279.21351563 -397.89501953 278.6171875 C-400.10180927 277.53255302 -402.31219571 276.455192 -404.52685547 275.38671875 C-420.22975151 267.67853145 -420.22975151 267.67853145 -423 261 C-424.04801769 254.51691383 -422.71712167 249.33715063 -419 244 C-416.13136944 240.53881448 -413.07893126 237.27366708 -410 234 C-408.8681261 232.71435259 -407.74262123 231.42305646 -406.625 230.125 C-403.17283922 226.15902924 -399.61249119 222.29482354 -396.05175781 218.42675781 C-392.89232846 214.98900296 -389.79070588 211.50980322 -386.734375 207.98046875 C-384.72735462 205.68866845 -382.67597149 203.44003248 -380.625 201.1875 C-377.42347567 197.64839998 -374.36853937 194.02896894 -371.375 190.3125 C-368.87026769 187.21408547 -366.3660889 184.26703053 -363.5 181.5 C-360.73510921 178.82958156 -358.33631435 176.00404008 -355.9375 173 C-350.99681812 166.85592734 -345.62140339 161.16666169 -340.21875 155.4296875 C-336.26156577 151.22630859 -332.46950245 146.90323136 -328.72949219 142.50634766 C-327.23757424 140.75316512 -325.74423195 139.00121075 -324.25 137.25 C-323.7351001 136.64623535 -323.2202002 136.0424707 -322.68969727 135.42041016 C-319.30885272 131.47495141 -315.84887807 127.61874476 -312.3125 123.8125 C-308.92475627 120.16586624 -305.68102204 116.44382599 -302.5625 112.5625 C-299.1965314 108.37761954 -295.66818547 104.41691504 -292 100.5 C-286.73049711 94.8718355 -281.85001069 88.99388114 -277 83 C-269.99701524 74.35173569 -261.30646767 65.24801608 -249.828125 63.5234375 C-238.49519891 63.05329428 -230.79707375 66.61395031 -221 72 C-219.32700423 72.90398146 -217.65382054 73.80761522 -215.98046875 74.7109375 C-212.31055863 76.70236949 -208.6519463 78.71337118 -204.99609375 80.73046875 C-195.23370412 86.08884593 -185.30734803 91.13736245 -175.40917969 96.23876953 C-170.93824033 98.54852007 -166.47681697 100.87630718 -162.01538086 103.2043457 C-153.90877368 107.43283209 -145.79673611 111.64845908 -137.625 115.75 C-136.98280518 116.07339355 -136.34061035 116.39678711 -135.67895508 116.72998047 C-127.45939739 120.82554649 -118.4865492 121.68125835 -109.66015625 118.9765625 C-99.10092361 114.05707445 -92.45469947 105.7338682 -85.31640625 96.8203125 C-82.96398442 93.95614967 -80.5116339 91.22514219 -78 88.5 C-74.78309481 85.0067962 -71.71363638 81.4600337 -68.75 77.75 C-63.87152271 71.6996465 -58.55735983 66.0971113 -53.23046875 60.4453125 C-50.28967421 57.32224078 -47.43600823 54.13727908 -44.63671875 50.88671875 C-42.62126228 48.56341213 -40.56151538 46.28251535 -38.5 44 C-35.82951656 41.04130249 -33.17701942 38.07073528 -30.5625 35.0625 C-26.91062947 30.86835635 -23.15733816 26.76905708 -19.41015625 22.66015625 C-16.83744134 19.8205795 -14.31154131 16.94504642 -11.80078125 14.05078125 C-8.85274719 10.69347565 -5.8333189 7.40054917 -2.8203125 4.1015625 C-0.96323333 2.13276579 -0.96323333 2.13276579 0 0 Z " fill="#81CBEF" transform="translate(609,289)"/>
<path d="M0 0 C10.30983061 4.33730395 20.25449807 9.56234197 30.1875 14.6875 C31.00798828 15.1107959 31.82847656 15.5340918 32.67382812 15.97021484 C42.97572525 21.30558008 53.16365037 26.84228607 63.33007812 32.43066406 C68.39696289 35.20504419 73.48757431 37.85947044 78.6875 40.375 C89.64923873 45.77700794 102.66595044 52.50621541 109.3125 63.0625 C110.95793877 69.87931777 108.90612119 74.87886883 105.4375 80.8125 C100.71633555 87.84506787 94.78606203 93.79141681 88.92578125 99.86816406 C86.37918597 102.53350508 83.91070593 105.26680867 81.4375 108 C60.18650294 131.15174606 60.18650294 131.15174606 45.8125 132.3125 C38.08686477 132.12429939 32.3018594 128.7189012 25.72460938 125.07421875 C21.78712807 122.92209271 17.79247037 120.88298712 13.80322266 118.82885742 C10.30436789 117.02610751 6.81154212 115.21198157 3.3203125 113.39453125 C-1.30555867 110.98765296 -5.93579775 108.58941807 -10.5703125 106.19921875 C-21.72093002 100.44563686 -32.8543521 94.65834858 -43.93655396 88.77389526 C-45.68074744 87.84921413 -47.42808123 86.93046386 -49.17553711 86.01196289 C-71.34262611 74.1905026 -71.34262611 74.1905026 -75.8125 66.6875 C-77.03495592 60.90861748 -74.89427308 57.22444343 -71.83984375 52.48828125 C-65.58752134 43.85067977 -58.28202788 36.01817054 -51.08203125 28.171875 C-49.10927727 26.01237151 -47.16970821 23.83156116 -45.25 21.625 C-44.69699219 20.99464844 -44.14398437 20.36429688 -43.57421875 19.71484375 C-42.29230379 18.23964671 -41.02610754 16.75074569 -39.76953125 15.25390625 C-28.57012401 2.23087871 -17.22406873 -6.61145116 0 0 Z " fill="#34ACE3" transform="translate(557.8125,146.3125)"/>
<path d="M0 0 C4.81728567 2.84851868 9.64625875 5.55680115 14.67456055 8.01342773 C26.1744801 13.6356774 37.51098284 19.57847307 48.8684082 25.48168945 C51.88876046 27.05010633 54.91204551 28.61267134 57.9362793 30.17358398 C86.57447285 45.01444052 86.57447285 45.01444052 91.67456055 52.20092773 C93.0668007 56.79532024 92.62702089 60.09252793 90.48706055 64.32592773 C84.87101874 73.77615105 76.70148364 81.9042531 69.3425293 90.00561523 C67.49159032 92.05120363 65.67083809 94.11809298 63.86206055 96.20092773 C62.67506245 97.55553436 61.48751248 98.90965751 60.29956055 100.26342773 C59.51581055 101.16448242 58.73206055 102.06553711 57.92456055 102.99389648 C50.37465517 111.52206703 43.64382127 118.95316015 31.73706055 119.70092773 C19.64749 119.30151594 7.86935003 111.70528805 -2.63793945 106.20092773 C-4.10667579 105.4378114 -5.57559087 104.67503898 -7.04467773 103.91259766 C-15.9677101 99.27029404 -24.82936241 94.52360024 -33.63549805 89.6628418 C-42.03765854 85.03712941 -50.55063598 80.63229751 -59.07885742 76.24511719 C-87.74597954 61.48544086 -87.74597954 61.48544086 -90.70043945 54.26342773 C-91.48139725 48.51471065 -90.93891965 43.18840081 -87.70043945 38.26342773 C-84.86331954 34.77346517 -81.79687228 31.52332232 -78.70043945 28.26342773 C-76.88191507 26.33108013 -75.06750601 24.39619254 -73.26293945 22.45092773 C-72.80169678 21.95407471 -72.3404541 21.45722168 -71.86523438 20.9453125 C-68.52260272 17.29122294 -65.48470236 13.47252354 -62.51293945 9.51342773 C-44.34593587 -14.54739695 -25.00271757 -14.79078474 0 0 Z " fill="#34ACE3" transform="translate(622.700439453125,676.736572265625)"/>
<path d="M0 0 C10.19018991 7.87268852 18.1732816 17.77656682 20.3359375 30.8046875 C22.0270338 54.73195069 22.0270338 54.73195069 16.3359375 64.8046875 C15.82675781 65.743125 15.31757813 66.6815625 14.79296875 67.6484375 C7.64872636 79.81163279 -2.50944248 86.11976062 -15.6640625 90.8046875 C-28.4885397 93.80739742 -45.84996058 93.83382377 -57.6640625 87.8046875 C-58.52644531 87.38058594 -59.38882812 86.95648437 -60.27734375 86.51953125 C-73.11467768 79.52620366 -80.60544366 68.80913306 -84.83203125 54.984375 C-87.44128803 43.66398447 -87.12722118 30.13718326 -81.6640625 19.8046875 C-81.22835938 18.94746094 -80.79265625 18.09023438 -80.34375 17.20703125 C-73.55324883 4.90620537 -63.79941305 -1.75665111 -50.7890625 -6.5703125 C-34.54071067 -11.17401218 -14.19490809 -9.47899178 0 0 Z " fill="#184C8A" transform="translate(448.6640625,936.1953125)"/>
<path d="M0 0 C9.24 0 18.48 0 28 0 C37.35181751 9.84034529 37.35181751 9.84034529 39.71484375 14.28515625 C43.00674292 20.14913401 46.8809486 25.39939783 50.9375 30.75 C52.938125 33.4725 54.93875 36.195 57 39 C57.33 26.13 57.66 13.26 58 0 C68.89 0 79.78 0 91 0 C91 31.68 91 63.36 91 96 C81.76 96 72.52 96 63 96 C54.21387528 86.72575724 54.21387528 86.72575724 52.05859375 82.484375 C48.93758452 76.71901976 45.15987977 71.63875629 41.1875 66.4375 C40.01009781 64.85600136 38.83655583 63.27161709 37.66796875 61.68359375 C37.17578857 61.01900146 36.6836084 60.35440918 36.17651367 59.66967773 C35 58 35 58 34 56 C33.67 69.2 33.34 82.4 33 96 C22.11 96 11.22 96 0 96 C0 64.32 0 32.64 0 0 Z " fill="#174C8A" transform="translate(250,930)"/>
<path d="M0 0 C0.70898438 0.26683594 1.41796875 0.53367187 2.1484375 0.80859375 C10.18705246 4.27351399 15.82857324 10.55345226 19.40625 18.43359375 C20 21 20 21 20 30 C9.77 30 -0.46 30 -11 30 C-11.66 28.02 -12.32 26.04 -13 24 C-16.13411302 21.91059132 -16.97450472 21.72635588 -20.5625 21.75 C-21.34753906 21.74484375 -22.13257813 21.7396875 -22.94140625 21.734375 C-25.22290968 21.81570738 -25.22290968 21.81570738 -27 24 C-27.66743877 26.41344667 -27.66743877 26.41344667 -27 29 C-22.38326126 32.78456796 -18.16439348 33.88588581 -12.375 34.9375 C0.56607953 37.59006019 10.68349153 41.39467568 19.44140625 51.6953125 C23.63390565 58.21048579 23.14483521 67.57105376 22 75 C19.15724045 83.86027978 13.74038842 88.97874294 5.69921875 93.2109375 C-2.43577526 97.06651449 -10.30760426 97.23391685 -19.1875 97.3125 C-20.26064453 97.34150391 -21.33378906 97.37050781 -22.43945312 97.40039062 C-33.4413996 97.48691531 -43.62140295 94.36794916 -52 87 C-58.11143708 79.81315983 -60 73.46628836 -60 64 C-49.44 64 -38.88 64 -28 64 C-27.01 66.31 -26.02 68.62 -25 71 C-21.26025568 72.86987216 -16.53209172 72.30641834 -12.5 71.5 C-12.005 71.335 -11.51 71.17 -11 71 C-11.18602283 66.25864354 -11.18602283 66.25864354 -13.5703125 62.39453125 C-16.77049675 60.55776955 -20.0598367 59.79600343 -23.625 59 C-25.06543215 58.65631966 -26.50553807 58.31126911 -27.9453125 57.96484375 C-28.64172852 57.79968262 -29.33814453 57.63452148 -30.05566406 57.46435547 C-41.30027269 54.77886506 -50.33767807 50.95747035 -57 41 C-60.28046896 33.31997233 -60.50904356 23.14478571 -58.16015625 15.13671875 C-53.89810056 6.8278627 -46.89160586 1.87431425 -38.296875 -1.2734375 C-26.64928029 -4.95788072 -11.29780626 -4.61094213 0 0 Z " fill="#184C8B" transform="translate(744,931)"/>
<path d="M0 0 C23.1 0 46.2 0 70 0 C70 8.25 70 16.5 70 25 C57.79 25 45.58 25 33 25 C33 28.3 33 31.6 33 35 C43.89 35 54.78 35 66 35 C66 43.25 66 51.5 66 60 C55.11 60 44.22 60 33 60 C33 63.63 33 67.26 33 71 C45.54 71 58.08 71 71 71 C71 79.25 71 87.5 71 96 C47.57 96 24.14 96 0 96 C0 64.32 0 32.64 0 0 Z " fill="#194D8B" transform="translate(595,930)"/>
<path d="M0 0 C12.21 0 24.42 0 37 0 C38.4025 3.09375 39.805 6.1875 41.25 9.375 C41.9001709 10.80465088 41.9001709 10.80465088 42.56347656 12.26318359 C45.20591629 18.11464237 47.66560554 24.01912039 50 30 C51.96187369 27.05718946 53.21035498 24.31403337 54.56640625 21.0546875 C55.05173828 19.89582031 55.53707031 18.73695313 56.03710938 17.54296875 C56.54048828 16.33253906 57.04386719 15.12210938 57.5625 13.875 C58.56159724 11.47564321 59.56278409 9.07715509 60.56640625 6.6796875 C61.00927979 5.61476074 61.45215332 4.54983398 61.90844727 3.45263672 C63 1 63 1 64 0 C66.73894085 -0.08858646 69.4525327 -0.11523479 72.19140625 -0.09765625 C73.01124496 -0.0962413 73.83108368 -0.09482635 74.67576599 -0.09336853 C77.30471382 -0.08775289 79.93357773 -0.07519779 82.5625 -0.0625 C84.34049357 -0.05748701 86.11848846 -0.05292376 87.89648438 -0.04882812 C92.26435545 -0.03777839 96.63216348 -0.02050331 101 0 C99.84221635 3.68154743 98.58532035 7.04343935 96.70703125 10.4140625 C96.24876953 11.24413818 95.79050781 12.07421387 95.31835938 12.92944336 C94.57295898 14.2637439 94.57295898 14.2637439 93.8125 15.625 C92.73454545 17.57619817 91.65778304 19.52805528 90.58203125 21.48046875 C90.00662598 22.52380371 89.4312207 23.56713867 88.83837891 24.64208984 C85.18256198 31.31966037 81.60984791 38.04211888 78.0284729 44.75982666 C77.10309792 46.49524992 76.17656542 48.2300558 75.25 49.96484375 C74.45335937 51.45939087 74.45335937 51.45939087 73.640625 52.98413086 C72.78049526 54.56525923 71.90749506 56.14295222 70.92962646 57.65409851 C68.16718399 62.01782576 67.39925233 65.72625496 67.390625 70.90234375 C67.37499512 71.54401489 67.35936523 72.18568604 67.34326172 72.84680176 C67.29124647 75.2099999 67.27249687 77.57383655 67.25 79.9375 C67.1675 85.238125 67.085 90.53875 67 96 C56.11 96 45.22 96 34 96 C34.103125 91.235625 34.20625 86.47125 34.3125 81.5625 C34.17838963 66.06362633 30.12038026 54.98064968 21.76635742 41.79077148 C17.28731675 34.71407295 13.09132738 27.47409132 9.4375 19.9375 C6.80208952 14.5653171 4.01590198 9.31527346 1.06640625 4.109375 C0 2 0 2 0 0 Z " fill="#174884" transform="translate(475,930)"/>
<path d="M0 0 C2.97 0 5.94 0 9 0 C18.11983788 21.72080673 27.21782546 43.45093718 36.23983765 65.21258545 C37.0767331 67.22978459 37.91495963 69.24643204 38.75454712 71.26251221 C39.93385311 74.09534931 41.10817481 76.93020309 42.28125 79.765625 C42.80352425 81.01613144 42.80352425 81.01613144 43.33634949 82.29190063 C45.19940148 86.81215811 46.75785768 91.27006111 48 96 C45.03 96 42.06 96 39 96 C35.7 88.41 32.4 80.82 29 73 C4.25 72.505 4.25 72.505 -21 72 C-21.99 75.3 -22.98 78.6 -24 82 C-25.01755894 84.55999014 -26.0755481 87.1045757 -27.1875 89.625 C-27.59645508 90.55892578 -27.59645508 90.55892578 -28.01367188 91.51171875 C-28.67064373 93.01007562 -29.33453502 94.50539581 -30 96 C-32.97 96 -35.94 96 -39 96 C-38.30828863 91.3727674 -36.58800789 87.26469438 -34.78125 82.984375 C-34.45122482 82.19206482 -34.12119965 81.39975464 -33.78117371 80.58343506 C-32.69169961 77.97049249 -31.59585764 75.36027099 -30.5 72.75 C-29.73887051 70.92793009 -28.97821662 69.10566143 -28.21801758 67.28320312 C-26.62707238 63.46997043 -25.03404202 59.65761767 -23.43994141 55.84570312 C-21.02413779 50.06380976 -18.62501711 44.27509826 -16.23046875 38.484375 C-15.84686188 37.55703552 -15.463255 36.62969604 -15.06802368 35.67425537 C-13.57756882 32.0709239 -12.08728551 28.46752214 -10.59814453 24.86364746 C-9.57045293 22.37738436 -8.54124754 19.8917528 -7.51171875 17.40625 C-7.21444382 16.68596619 -6.91716888 15.96568237 -6.61088562 15.22357178 C-4.49094678 10.1103189 -2.26298703 5.05161509 0 0 Z " fill="#1E4272" transform="translate(866,930)"/>
<path d="M0 0 C4.46341087 3.02306065 7.39332313 7.3440319 9.08203125 12.41015625 C9.82344625 19.25305206 9.17256746 24.75892315 5.08203125 30.41015625 C0.5103035 35.33259188 -4.0977587 37.47124173 -10.73046875 37.78515625 C-17.20679043 37.64038006 -21.78606162 35.5981662 -26.29296875 30.97265625 C-30.46922135 24.38702716 -30.81448469 18.06289023 -29.91796875 10.41015625 C-27.8190757 4.68098895 -24.26779962 1.31767302 -18.91796875 -1.58984375 C-12.33671051 -3.7835965 -6.19453217 -3.02675039 0 0 Z " fill="#FAFBFC" transform="translate(426.91796875,960.58984375)"/>
<path d="M0 0 C2.34624607 2.89188469 3.81227015 5.62240248 5.1640625 9.0859375 C5.55996582 10.08947266 5.95586914 11.09300781 6.36376953 12.12695312 C6.98807861 13.73473633 6.98807861 13.73473633 7.625 15.375 C8.5095452 17.62273897 9.39498123 19.87012756 10.28125 22.1171875 C10.72984375 23.25768555 11.1784375 24.39818359 11.640625 25.57324219 C14.13440816 31.85965391 16.72142613 38.10788488 19.30712891 44.35693359 C19.66210449 45.21883301 20.01708008 46.08073242 20.3828125 46.96875 C20.69621582 47.72607422 21.00961914 48.48339844 21.33251953 49.26367188 C22 51 22 51 22 52 C7.81 52 -6.38 52 -21 52 C-17.23435947 41.95829192 -13.44035425 31.97897852 -9.375 22.0625 C-8.9109375 20.92232422 -8.446875 19.78214844 -7.96875 18.60742188 C-5.41509958 12.3567493 -2.79379148 6.14733548 0 0 Z " fill="#FBFCFC" transform="translate(870,942)"/>
<path d="M0 0 C2.64 0 5.28 0 8 0 C8 31.68 8 63.36 8 96 C5.36 96 2.72 96 0 96 C0 64.32 0 32.64 0 0 Z " fill="#164B89" transform="translate(943,930)"/>
</svg>
